# xmcd CD database file
#
# Track frame offsets:
#	150
#	24470
#	42708
#	81817
#	125565
#	151265
#	175136
#	200673
#	227431
#
# Disc length: 3376 seconds
#
# Revision: 0
# Processed by: cddbd v1.5.2PL0 Copyright (c) Steve Scherf et al.
# Submitted via: CDex 1.79
#
DISCID=6f0d2e09
DTITLE=Golfam Khayam, Mona Matbou Riahi - Narrante
DYEAR=2016
DGENRE=Jazz
TTITLE0=Testamento
TTITLE1=Arioso
TTITLE2=Lacrimae
TTITLE3=Battaglia
TTITLE4=Parlando
TTITLE5=Sospiro
TTITLE6=Narrante
TTITLE7=Silenzio
TTITLE8=Lamento-Furioso
EXTD=YEAR: 2016
EXTT0=
EXTT1=
EXTT2=
EXTT3=
EXTT4=
EXTT5=
EXTT6=
EXTT7=
EXTT8=
PLAYORDER=
